<svg width="139" height="16" viewBox="0 0 139 16" fill="none" xmlns="http://www.w3.org/2000/svg">
<path d="M29.7079 9.91591V13.2399H27.9079V11.4999H21.9799V13.2399H20.1799L20.1919 9.91591H20.5279C21.0319 9.89991 21.3879 9.53191 21.5959 8.81191C21.8039 8.09191 21.9319 7.06391 21.9799 5.72791L22.0759 3.09991H28.5319V9.91591H29.7079ZM23.6959 5.90791C23.6559 6.90791 23.5719 7.74791 23.4439 8.42791C23.3159 9.09991 23.1199 9.59591 22.8559 9.91591H26.6119V4.68391H23.7319L23.6959 5.90791Z" fill="white"/>
<path d="M33.8145 11.5959C33.1345 11.5959 32.5225 11.4559 31.9785 11.1759C31.4425 10.8879 31.0225 10.4919 30.7185 9.98791C30.4145 9.48391 30.2625 8.91191 30.2625 8.27191C30.2625 7.63191 30.4145 7.05991 30.7185 6.55591C31.0225 6.05191 31.4425 5.65991 31.9785 5.37991C32.5225 5.09191 33.1345 4.94791 33.8145 4.94791C34.4945 4.94791 35.1025 5.09191 35.6385 5.37991C36.1745 5.65991 36.5945 6.05191 36.8985 6.55591C37.2025 7.05991 37.3545 7.63191 37.3545 8.27191C37.3545 8.91191 37.2025 9.48391 36.8985 9.98791C36.5945 10.4919 36.1745 10.8879 35.6385 11.1759C35.1025 11.4559 34.4945 11.5959 33.8145 11.5959ZM33.8145 10.0599C34.2945 10.0599 34.6865 9.89991 34.9905 9.57991C35.3025 9.25191 35.4585 8.81591 35.4585 8.27191C35.4585 7.72791 35.3025 7.29591 34.9905 6.97591C34.6865 6.64791 34.2945 6.48391 33.8145 6.48391C33.3345 6.48391 32.9385 6.64791 32.6265 6.97591C32.3145 7.29591 32.1585 7.72791 32.1585 8.27191C32.1585 8.81591 32.3145 9.25191 32.6265 9.57991C32.9385 9.89991 33.3345 10.0599 33.8145 10.0599Z" fill="white"/>
<path d="M42.4461 4.94791C43.0461 4.94791 43.5901 5.08791 44.0781 5.36791C44.5741 5.63991 44.9621 6.02791 45.2421 6.53191C45.5221 7.02791 45.6621 7.60791 45.6621 8.27191C45.6621 8.93591 45.5221 9.51991 45.2421 10.0239C44.9621 10.5199 44.5741 10.9079 44.0781 11.1879C43.5901 11.4599 43.0461 11.5959 42.4461 11.5959C41.6221 11.5959 40.9741 11.3359 40.5021 10.8159V13.8279H38.6301V5.04391H40.4181V5.78791C40.8821 5.22791 41.5581 4.94791 42.4461 4.94791ZM42.1221 10.0599C42.6021 10.0599 42.9941 9.89991 43.2981 9.57991C43.6101 9.25191 43.7661 8.81591 43.7661 8.27191C43.7661 7.72791 43.6101 7.29591 43.2981 6.97591C42.9941 6.64791 42.6021 6.48391 42.1221 6.48391C41.6421 6.48391 41.2461 6.64791 40.9341 6.97591C40.6301 7.29591 40.4781 7.72791 40.4781 8.27191C40.4781 8.81591 40.6301 9.25191 40.9341 9.57991C41.2461 9.89991 41.6421 10.0599 42.1221 10.0599Z" fill="white"/>
<path d="M51.0901 11.6439C50.2341 11.6439 49.4581 11.4599 48.7621 11.0919C48.0741 10.7159 47.5301 10.1999 47.1301 9.54391C46.7381 8.87991 46.5421 8.13191 46.5421 7.29991C46.5421 6.46791 46.7381 5.72391 47.1301 5.06791C47.5301 4.40391 48.0741 3.88791 48.7621 3.51991C49.4581 3.14391 50.2381 2.95592 51.1021 2.95592C51.8301 2.95592 52.4861 3.08391 53.0701 3.33991C53.6621 3.59591 54.1581 3.96391 54.5581 4.44391L53.3101 5.59591C52.7421 4.93991 52.0381 4.61191 51.1981 4.61191C50.6781 4.61191 50.2141 4.72791 49.8061 4.95991C49.3981 5.18391 49.0781 5.49991 48.8461 5.90791C48.6221 6.31591 48.5101 6.77991 48.5101 7.29991C48.5101 7.81991 48.6221 8.28391 48.8461 8.69191C49.0781 9.09991 49.3981 9.41991 49.8061 9.65191C50.2141 9.87591 50.6781 9.98791 51.1981 9.98791C52.0381 9.98791 52.7421 9.65591 53.3101 8.99191L54.5581 10.1439C54.1581 10.6319 53.6621 11.0039 53.0701 11.2599C52.4781 11.5159 51.8181 11.6439 51.0901 11.6439Z" fill="white"/>
<path d="M60.9294 6.57991H58.7454V11.4999H56.8854V6.57991H54.7014V5.04391H60.9294V6.57991Z" fill="white"/>
<path d="M65.7312 4.94791C66.3312 4.94791 66.8752 5.08791 67.3632 5.36791C67.8592 5.63991 68.2472 6.02791 68.5272 6.53191C68.8072 7.02791 68.9472 7.60791 68.9472 8.27191C68.9472 8.93591 68.8072 9.51991 68.5272 10.0239C68.2472 10.5199 67.8592 10.9079 67.3632 11.1879C66.8752 11.4599 66.3312 11.5959 65.7312 11.5959C64.9072 11.5959 64.2592 11.3359 63.7872 10.8159V13.8279H61.9152V5.04391H63.7032V5.78791C64.1672 5.22791 64.8432 4.94791 65.7312 4.94791ZM65.4072 10.0599C65.8872 10.0599 66.2792 9.89991 66.5832 9.57991C66.8952 9.25191 67.0512 8.81591 67.0512 8.27191C67.0512 7.72791 66.8952 7.29591 66.5832 6.97591C66.2792 6.64791 65.8872 6.48391 65.4072 6.48391C64.9272 6.48391 64.5312 6.64791 64.2192 6.97591C63.9152 7.29591 63.7632 7.72791 63.7632 8.27191C63.7632 8.81591 63.9152 9.25191 64.2192 9.57991C64.5312 9.89991 64.9272 10.0599 65.4072 10.0599Z" fill="white"/>
<path d="M73.2833 11.5959C72.6033 11.5959 71.9913 11.4559 71.4473 11.1759C70.9113 10.8879 70.4913 10.4919 70.1873 9.98791C69.8833 9.48391 69.7313 8.91191 69.7313 8.27191C69.7313 7.63191 69.8833 7.05991 70.1873 6.55591C70.4913 6.05191 70.9113 5.65991 71.4473 5.37991C71.9913 5.09191 72.6033 4.94791 73.2833 4.94791C73.9633 4.94791 74.5713 5.09191 75.1073 5.37991C75.6433 5.65991 76.0633 6.05191 76.3673 6.55591C76.6713 7.05991 76.8233 7.63191 76.8233 8.27191C76.8233 8.91191 76.6713 9.48391 76.3673 9.98791C76.0633 10.4919 75.6433 10.8879 75.1073 11.1759C74.5713 11.4559 73.9633 11.5959 73.2833 11.5959ZM73.2833 10.0599C73.7633 10.0599 74.1553 9.89991 74.4593 9.57991C74.7713 9.25191 74.9273 8.81591 74.9273 8.27191C74.9273 7.72791 74.7713 7.29591 74.4593 6.97591C74.1553 6.64791 73.7633 6.48391 73.2833 6.48391C72.8033 6.48391 72.4073 6.64791 72.0953 6.97591C71.7833 7.29591 71.6273 7.72791 71.6273 8.27191C71.6273 8.81591 71.7833 9.25191 72.0953 9.57991C72.4073 9.89991 72.8033 10.0599 73.2833 10.0599Z" fill="white"/>
<path d="M78.1108 5.04391H79.9708V8.88391L83.1148 5.04391H84.8308V11.4999H82.9708V7.65991L79.8388 11.4999H78.1108V5.04391ZM81.3508 4.34791C79.9428 4.34791 79.2348 3.72791 79.2268 2.48792H80.4508C80.4588 2.76791 80.5348 2.98791 80.6788 3.14791C80.8308 3.29991 81.0508 3.37591 81.3388 3.37591C81.6268 3.37591 81.8468 3.29991 81.9988 3.14791C82.1588 2.98791 82.2388 2.76791 82.2388 2.48792H83.4868C83.4788 3.72791 82.7668 4.34791 81.3508 4.34791Z" fill="white"/>
<path d="M94.4183 11.4999L94.4063 6.47191L91.9343 10.6119H91.0703L88.5983 6.56791V11.4999H86.7743V3.09991H88.3823L91.5263 8.31991L94.6223 3.09991H96.2303L96.2423 11.4999H94.4183Z" fill="white"/>
<path d="M101.209 11.5959C100.529 11.5959 99.917 11.4559 99.373 11.1759C98.837 10.8879 98.417 10.4919 98.113 9.98791C97.809 9.48391 97.657 8.91191 97.657 8.27191C97.657 7.63191 97.809 7.05991 98.113 6.55591C98.417 6.05191 98.837 5.65991 99.373 5.37991C99.917 5.09191 100.529 4.94791 101.209 4.94791C101.889 4.94791 102.497 5.09191 103.033 5.37991C103.569 5.65991 103.989 6.05191 104.293 6.55591C104.597 7.05991 104.749 7.63191 104.749 8.27191C104.749 8.91191 104.597 9.48391 104.293 9.98791C103.989 10.4919 103.569 10.8879 103.033 11.1759C102.497 11.4559 101.889 11.5959 101.209 11.5959ZM101.209 10.0599C101.689 10.0599 102.081 9.89991 102.385 9.57991C102.697 9.25191 102.853 8.81591 102.853 8.27191C102.853 7.72791 102.697 7.29591 102.385 6.97591C102.081 6.64791 101.689 6.48391 101.209 6.48391C100.729 6.48391 100.333 6.64791 100.021 6.97591C99.709 7.29591 99.553 7.72791 99.553 8.27191C99.553 8.81591 99.709 9.25191 100.021 9.57991C100.333 9.89991 100.729 10.0599 101.209 10.0599Z" fill="white"/>
<path d="M106.037 5.04391H107.897V7.56391H110.705V5.04391H112.577V11.4999H110.705V9.08791H107.897V11.4999H106.037V5.04391Z" fill="white"/>
<path d="M119.793 6.57991H117.609V11.4999H115.749V6.57991H113.565V5.04391H119.793V6.57991Z" fill="white"/>
<path d="M123.298 4.94791C124.298 4.94791 125.066 5.18791 125.602 5.66791C126.138 6.13991 126.406 6.85591 126.406 7.81591V11.4999H124.654V10.6959C124.302 11.2959 123.646 11.5959 122.686 11.5959C122.19 11.5959 121.758 11.5119 121.39 11.3439C121.03 11.1759 120.754 10.9439 120.562 10.6479C120.37 10.3519 120.274 10.0159 120.274 9.63991C120.274 9.03991 120.498 8.56791 120.946 8.22391C121.402 7.87991 122.102 7.70791 123.046 7.70791H124.534C124.534 7.29991 124.41 6.98791 124.162 6.77191C123.914 6.54791 123.542 6.43591 123.046 6.43591C122.702 6.43591 122.362 6.49191 122.026 6.60391C121.698 6.70791 121.418 6.85191 121.186 7.03591L120.514 5.72791C120.866 5.47991 121.286 5.28791 121.774 5.15191C122.27 5.01591 122.778 4.94791 123.298 4.94791ZM123.154 10.3359C123.474 10.3359 123.758 10.2639 124.006 10.1199C124.254 9.96791 124.43 9.74791 124.534 9.45991V8.79991H123.25C122.482 8.79991 122.098 9.05191 122.098 9.55591C122.098 9.79591 122.19 9.98791 122.374 10.1319C122.566 10.2679 122.826 10.3359 123.154 10.3359Z" fill="white"/>
<path d="M134.429 9.05191H133.529V11.4999H131.681V9.05191H130.781L129.413 11.4999H127.205L129.233 8.16391L127.349 5.04391H129.329L130.757 7.55191H131.681V5.04391H133.529V7.55191H134.441L135.881 5.04391H137.861L135.977 8.16391L138.017 11.4999H135.797L134.429 9.05191Z" fill="white"/>
<path fill-rule="evenodd" clip-rule="evenodd" d="M3 0C1.34315 0 0 1.34315 0 3V7.66666C0 9.21654 1.17531 10.4919 2.68328 10.6501C2.67235 10.546 2.66675 10.4403 2.66675 10.3333V5.66662C2.66675 4.00977 4.00989 2.66662 5.66675 2.66662H10.3334C10.4404 2.66662 10.546 2.67222 10.6501 2.68314C10.4918 1.17524 9.21649 0 7.66666 0H3ZM8.33325 16C6.78336 16 5.50798 14.8247 5.34976 13.3167C5.45393 13.3277 5.55968 13.3333 5.66675 13.3333H10.3334C11.9903 13.3333 13.3334 11.9901 13.3334 10.3333V5.66662C13.3334 5.55965 13.3278 5.45399 13.3169 5.34992C14.8247 5.50826 15.9999 6.78358 15.9999 8.33337V13C15.9999 14.6569 14.6568 16 12.9999 16H8.33325ZM10.6669 7.66665V5.33337H8.33325C6.67639 5.33337 5.33325 6.67651 5.33325 8.33337V10.6667H7.66689C9.32375 10.6667 10.6669 9.3235 10.6669 7.66665Z" fill="#FFB71B"/>
</svg>
