<svg width="64" height="62" viewBox="0 0 64 62" fill="none" xmlns="http://www.w3.org/2000/svg">
<path d="M33.9359 11.6489L55.732 49.4007H12.1399L33.9359 11.6489Z" fill="#C4C4C4"/>
<path d="M29.5163 2.42985C30.6233 0.52338 33.3767 0.523382 34.4837 2.42986L62.6059 50.8626C63.7176 52.7772 62.3362 55.1767 60.1222 55.1767H3.87778C1.66378 55.1767 0.2824 52.7772 1.39413 50.8626L29.5163 2.42985Z" stroke="#2B2831" stroke-width="2"/>
<path d="M29.405 10.3724C30.561 8.37923 33.4392 8.37923 34.5952 10.3724L55.7229 46.7995C56.8829 48.7995 55.4399 51.3047 53.1278 51.3047H10.8723C8.56029 51.3047 7.11724 48.7995 8.27724 46.7995L29.405 10.3724Z" fill="#FFB71B" stroke="#2B2831" stroke-width="2"/>
<path fill-rule="evenodd" clip-rule="evenodd" d="M27.7591 25.3138C26.3015 25.3138 25.1156 26.4996 25.1156 27.9573C25.1156 29.4149 26.3015 30.6008 27.7591 30.6008C29.2168 30.6008 30.4026 29.4149 30.4026 27.9573C30.4026 26.4997 29.2168 25.3138 27.7591 25.3138ZM21.9672 34.9325C21.3396 34.556 20.5244 34.7614 20.1506 35.391L14.7629 44.4654C14.2407 45.3451 14.8758 46.462 15.8994 46.462H26.4374C27.1673 46.462 27.7591 45.8702 27.7591 45.1403C27.7591 40.955 25.5573 37.0866 21.9672 34.9325ZM18.2213 43.8185L21.6964 37.9655C23.4904 39.4322 24.6832 41.5333 25.0188 43.8185H18.2213ZM38.3291 39.3059L43.2289 44.2057C43.7451 44.7219 43.7451 45.5588 43.2288 46.0751C42.7127 46.5913 41.8757 46.5912 41.3596 46.0751L36.0726 40.7881C35.8247 40.5401 35.6855 40.2039 35.6855 39.8534V37.7574L33.042 40.4009V45.1404C33.042 45.8704 32.4502 46.4622 31.7202 46.4622C30.9902 46.4622 30.3985 45.8704 30.3985 45.1404V39.8534C30.3985 39.5028 30.5377 39.1667 30.7856 38.9188L35.138 34.5663L32.2979 31.7262L30.3307 37.6278C30.0998 38.3203 29.3514 38.6947 28.6587 38.4638C27.9662 38.2329 27.5918 37.4843 27.8227 36.7918L30.4576 28.8871C30.623 28.3547 31.1155 27.9574 31.7202 27.9575H39.6508C40.3808 27.9575 40.9726 28.5492 40.9726 29.2792V31.9227C40.9726 32.6527 40.3808 33.2445 39.6508 33.2445C38.9208 33.2445 38.3291 32.6527 38.3291 31.9227V30.601H34.9113L37.9417 33.6314C38.1967 33.8864 38.3292 34.2346 38.3291 34.5668V39.3059Z" fill="#2B2831"/>
</svg>
