<svg width="64" height="50" viewBox="0 0 64 50" fill="none" xmlns="http://www.w3.org/2000/svg">
<rect x="1" y="1" width="62" height="48" rx="3" fill="white" stroke="#2B2831" stroke-width="2"/>
<rect x="7" y="7" width="50" height="36" rx="1" fill="#FFB71B" stroke="#2B2831" stroke-width="2"/>
<g clip-path="url(#clip0)">
<path d="M37.0001 36.9979C37.0001 37.5804 36.5279 38.0525 35.9454 38.0525H11.0549C10.4724 38.0525 10.0003 37.5804 10.0003 36.9979C10.0003 36.4153 10.4724 35.9432 11.0549 35.9432H22.4598L22.4472 31.428L19.56 29.9844L17.0123 32.5319C16.6753 32.8689 16.1479 32.9416 15.7294 32.6938L10.5177 29.6087C10.0163 29.3118 9.8505 28.665 10.1473 28.1638C10.444 27.6626 11.091 27.4968 11.5922 27.7934L16.0995 30.4619L18.5142 28.047L21.1355 23.6822L19.217 21.7669L16.824 23.3569C16.3391 23.6793 15.6844 23.5473 15.3621 23.0622C15.0397 22.5771 15.1715 21.9224 15.6566 21.6L18.768 19.5327C19.1859 19.255 19.7417 19.3102 20.0968 19.6647L25.7112 25.2698L28.1001 23.6754C28.5846 23.352 29.2395 23.4828 29.5629 23.9673C29.8863 24.4518 29.7557 25.1067 29.2712 25.4301L26.1633 27.5042C25.7437 27.7842 25.1871 27.7273 24.8326 27.3734L22.6736 25.2181L20.8425 28.2674L23.9718 29.832C24.3281 30.0101 24.5537 30.3741 24.5547 30.7725L24.5692 35.9434H30.7424V13.1621H16.2579V18.3336C16.2579 18.9161 15.7858 19.3883 15.2032 19.3883C14.6209 19.3883 14.1486 18.9161 14.1486 18.3336V12.1074C14.1486 11.5249 14.6209 11.0527 15.2032 11.0527H31.7971C32.3794 11.0527 32.8518 11.5249 32.8518 12.1074V35.9432H35.9454C36.5279 35.9432 37.0001 36.4153 37.0001 36.9979ZM25.5777 21.4657C23.8507 21.4657 22.4456 20.0606 22.4456 18.3334C22.4456 16.6063 23.8507 15.2012 25.5777 15.2012C27.305 15.2012 28.71 16.6063 28.71 18.3334C28.71 20.0606 27.305 21.4657 25.5777 21.4657ZM25.5777 19.3563C26.1419 19.3563 26.6007 18.8976 26.6007 18.3334C26.6007 17.7694 26.1419 17.3106 25.5777 17.3106C25.0137 17.3106 24.5549 17.7694 24.5549 18.3334C24.5549 18.8976 25.0137 19.3563 25.5777 19.3563Z" fill="#2B2831"/>
</g>
<path d="M52.7071 25.7071C53.0976 25.3166 53.0976 24.6834 52.7071 24.2929L46.3431 17.9289C45.9526 17.5384 45.3195 17.5384 44.9289 17.9289C44.5384 18.3195 44.5384 18.9526 44.9289 19.3431L50.5858 25L44.9289 30.6569C44.5384 31.0474 44.5384 31.6805 44.9289 32.0711C45.3195 32.4616 45.9526 32.4616 46.3431 32.0711L52.7071 25.7071ZM38 26H52V24H38V26Z" fill="#2B2831"/>
<defs>
<clipPath id="clip0">
<rect x="10" y="11" width="27" height="27" fill="white"/>
</clipPath>
</defs>
</svg>
